<?xml version="1.0" encoding="UTF-8"?>
<svg id="Layer_1" data-name="Layer 1" xmlns="http://www.w3.org/2000/svg" xmlns:xlink="http://www.w3.org/1999/xlink" viewBox="0 0 2007.94 1745.02">
  <defs>
    <style>
      .cls-1 {
        fill: url(#linear-gradient-2);
      }

      .cls-2 {
        fill: #3f57a7;
      }

      .cls-3 {
        fill: #7d748f;
      }

      .cls-4 {
        fill: #fdf8f2;
      }

      .cls-5 {
        fill: #cfa65b;
      }

      .cls-6 {
        fill: #3e58a7;
      }

      .cls-7 {
        fill: url(#linear-gradient-5);
      }

      .cls-8 {
        fill: #fec810;
      }

      .cls-9 {
        fill: #dfdfde;
      }

      .cls-10 {
        fill: #51b2c4;
        isolation: isolate;
        opacity: .86;
      }

      .cls-11 {
        fill: url(#linear-gradient-3);
      }

      .cls-12 {
        fill: url(#linear-gradient);
      }

      .cls-13 {
        fill: #4274b5;
      }

      .cls-14 {
        fill: url(#linear-gradient-4);
      }
    </style>
    <linearGradient id="linear-gradient" x1="1723.22" y1="-377.83" x2="474.69" y2="1661.6" gradientTransform="translate(-77.99 1165.7) scale(.83 -.83)" gradientUnits="userSpaceOnUse">
      <stop offset="0" stop-color="#3f57a7"/>
      <stop offset=".21" stop-color="#3f57a7"/>
      <stop offset=".29" stop-color="#646d89"/>
      <stop offset=".46" stop-color="#c4a53d"/>
      <stop offset=".56" stop-color="#fec810"/>
      <stop offset=".77" stop-color="#3f57a7"/>
    </linearGradient>
    <linearGradient id="linear-gradient-2" x1="894.55" y1="636.45" x2="1129.23" y2="764.25" gradientTransform="translate(-77.99 1165.7) scale(.83 -.83)" gradientUnits="userSpaceOnUse">
      <stop offset="0" stop-color="#fff" stop-opacity=".9"/>
      <stop offset=".1" stop-color="#fefcf2" stop-opacity=".91"/>
      <stop offset=".28" stop-color="#fef4d0" stop-opacity=".92"/>
      <stop offset=".51" stop-color="#fee79a" stop-opacity=".94"/>
      <stop offset=".78" stop-color="#fed64f" stop-opacity=".97"/>
      <stop offset="1" stop-color="#fec810"/>
    </linearGradient>
    <linearGradient id="linear-gradient-3" x1="1251.44" y1="798.16" x2="1694.08" y2="798.16" gradientTransform="translate(-77.99 1165.7) scale(.83 -.83)" gradientUnits="userSpaceOnUse">
      <stop offset="0" stop-color="#3f57a7"/>
      <stop offset="1" stop-color="#5ab7d6"/>
    </linearGradient>
    <linearGradient id="linear-gradient-4" x1="-680.23" y1="717.54" x2="188.55" y2="717.54" gradientTransform="translate(331.26 750.43) rotate(117.96) scale(.83 -.87)" gradientUnits="userSpaceOnUse">
      <stop offset="0" stop-color="#3f57a7"/>
      <stop offset="1" stop-color="#5ab7d6"/>
    </linearGradient>
    <linearGradient id="linear-gradient-5" x1="824.88" y1="373.89" x2="1687.75" y2="373.89" gradientTransform="translate(-77.99 1165.7) scale(.83 -.83)" gradientUnits="userSpaceOnUse">
      <stop offset="0" stop-color="#3f57a7"/>
      <stop offset="1" stop-color="#5ab7d6"/>
    </linearGradient>
  </defs>
  <rect class="cls-8" x="749.54" y="654.23" width="443.5" height="401.7" rx="189.74" ry="189.74"/>
  <polygon class="cls-4" points="1102.33 855.09 894.8 974.9 894.8 735.26 1102.33 855.09"/>
  <path class="cls-8" d="m1335.3,916.35c0,37.45-2.15,74.36-6.41,110.31-13.89,6.46-28.01,12.85-42.36,19.12,6.01-41.91,9.07-85.25,9.07-129.43,0-29.95-.12-40.49-2.13-58.27-1.4-12.39,11.2-21.61,22.56-16.49,2.58,1.15,5.13,2.32,7.69,3.47,5.16,2.34,8.67,7.28,9.29,12.91,2.77,25.22,2.27,25.98,2.27,58.38h0Z"/>
  <path class="cls-12" d="m1762.09,435.19c-47.24-88.91-175.22-126.22-360.4-105.07-42.98,4.88-87.95,12.81-134.39,23.54,3.85,12.48,7.54,25.17,11.06,38.11,44.17-10.09,86.92-17.58,127.81-22.23,165.46-18.83,282.39,11.85,320.88,84.26,38.45,72.41-1.64,186.5-109.94,313-17.98,20.98-37.48,41.96-58.4,62.88-9.25,9.25-18.77,18.43-28.52,27.56,9.87,9.13,19.45,18.26,28.74,27.44,9.75-9.13,19.22-18.37,28.46-27.56,21.43-21.43,41.45-42.98,59.88-64.53,121.23-141.59,162-268.49,114.82-357.41h0Zm-1059.28,873.8c-12.98,3.41-25.85,6.52-38.56,9.35-44.17,10.15-86.98,17.64-127.86,22.28-165.46,18.88-282.39-11.85-320.83-84.26-38.5-72.41,1.59-186.5,109.89-313,16.67-19.45,34.58-38.9,53.81-58.24,9.19-9.3,18.6-18.54,28.35-27.84-9.64-9.25-19.05-18.6-28.12-27.96-9.7,9.25-19.17,18.48-28.35,27.78-19.91,20.07-38.56,40.26-55.85,60.45-121.23,141.59-162,268.49-114.82,357.41,38.61,72.63,131.15,110.86,264.81,110.86,29.82,0,61.75-1.87,95.6-5.78,42.98-4.88,87.95-12.82,134.39-23.54,12.76-2.89,25.57-6.01,38.56-9.41-3.85-12.48-7.54-25.17-11-38.11h-.02Zm-41.22-695.13c-14.63,9.13-29.04,18.37-43.15,27.73-1.81,16.84-3.41,33.85-4.76,50.98,13.89-9.53,28.01-18.94,42.36-28.24,1.64-17.01,3.51-33.8,5.56-50.47h0Z"/>
  <path class="cls-10" d="m618.45,641.59c-1.81,16.84-3.41,33.85-4.76,50.98-76.95,52.62-146.52,108.19-206.06,164.72-9.64-9.25-19.05-18.6-28.12-27.96,68.21-64.87,149.07-128.38,238.95-187.75h0Z"/>
  <path class="cls-1" d="m1012.08,477.83c-16.67,6.86-33.4,14.01-50.19,21.43-47.46,20.93-95.21,44.11-142.73,69.34-56.87,30.17-111.48,62.26-163.14,95.71,1.64-17.01,3.51-33.8,5.56-50.47,44.51-27.96,90.95-54.77,138.98-80.29,36.86-19.56,73.89-37.93,110.86-55.06,16.78-7.77,33.51-15.25,50.24-22.4,16.78,6.92,33.57,14.17,50.41,21.72h0Z"/>
  <path class="cls-2" d="m1558.93,884.69c-67.31,63.56-146.75,125.71-234.81,183.89-14.12,9.35-28.52,18.6-43.15,27.73-44.51,27.96-90.95,54.77-138.98,80.29-43.27,22.96-86.82,44.29-130.13,63.79-16.67,7.6-33.34,14.85-50.01,21.83-84.61,35.61-168.18,64.24-248.02,84.89-3.85-12.48-7.54-25.17-11-38.11,67.48-17.4,137.85-40.72,209.35-69.24,16.56-6.64,33.23-13.55,49.95-20.75,53.58-23.02,107.57-48.93,161.26-77.45,56.87-30.17,111.48-62.26,163.14-95.77,14.35-9.25,28.46-18.66,42.36-28.18,74.9-51.26,142.83-105.3,201.3-160.36,9.87,9.13,19.45,18.26,28.74,27.44v-.02Z"/>
  <path class="cls-11" d="m1329.4,651.57c-1.87-1.25-3.8-2.55-5.67-3.75-5.1-3.4-10.21-6.69-15.37-9.98-7.14-4.54-14.29-9.01-21.43-13.61-1.53-16.96-28.64-155.14-47.18-223.07-73.26,18.94-149.87,44.74-227.66,76.66-16.84-7.54-33.63-14.8-50.41-21.72,91.12-39.47,181.28-70.82,267.08-93.05,12.98-3.41,25.8-6.52,38.56-9.41,3.85,12.48,7.54,25.17,11.06,38.11,21.38,78.93,49.73,242.8,51.03,259.81h0Z"/>
  <path class="cls-14" d="m1654.42,928.63c-20.47-23.93-42.87-47.86-67.03-71.5-9.3-9.25-18.88-18.43-28.69-27.44-66.23-61.58-143.69-121.68-229.31-178.11-1.87-1.25-3.8-2.55-5.67-3.75-5.1-3.35-10.21-6.69-15.37-9.98-7.14-4.54-14.29-9.01-21.43-13.61-1.7-1.08-3.41-2.1-5.1-3.17-42.59-26.48-86.98-52-132.74-76.32-45.59-24.21-91.35-46.56-136.99-66.91-16.84-7.54-33.63-14.8-50.41-21.72-85.57-35.66-170-64.08-250.52-84.31-12.98-3.29-25.85-6.35-38.61-9.13-42.98-9.64-84.66-16.78-124.63-21.32-185.2-21.09-313.18,16.27-360.35,105.13-47.24,88.91-6.41,215.87,114.82,357.41,15.19,17.75,31.47,35.56,48.77,53.24,9.07,9.35,18.48,18.71,28.12,28.01,68.16,65.72,149.41,130.13,239.97,190.41,14.17,9.47,28.64,18.83,43.32,28.07-2.21-16.78-4.14-33.74-5.84-50.86-14.41-9.35-28.58-18.88-42.47-28.52-77.45-53.36-147.2-109.66-206.63-166.93-9.64-9.25-19.05-18.6-28.12-27.96-16.62-17.01-32.32-34.14-46.95-51.26-108.31-126.45-148.39-240.53-109.94-312.95,31.02-58.46,113.13-89.76,230.67-89.76,28.07,0,58.24,1.76,90.16,5.38,37.99,4.31,77.57,11.06,118.39,20.07,12.76,2.83,25.63,5.9,38.61,9.13,67.93,17.06,138.81,40.14,210.99,68.56,16.78,6.58,33.57,13.49,50.47,20.75,55.97,23.76,112.44,50.69,168.58,80.52,54.55,28.92,107,59.6,156.72,91.58,14.29,9.19,28.35,18.43,42.19,27.78,74.51,50.52,142.15,103.82,200.79,158.09,9.87,9.13,19.45,18.26,28.74,27.44,23.54,23.14,45.36,46.44,65.32,69.74,108.36,126.45,148.39,240.53,109.94,313-38.45,72.41-155.37,103.14-320.83,84.31-43.83-4.99-89.87-13.21-137.45-24.44-12.76-3.01-25.57-6.24-38.56-9.7-72.69-19.28-148.57-45.25-225.51-77.23-16.67,7.6-33.34,14.85-50.01,21.83,90.05,39.3,179.18,70.82,264.23,93.39,12.93,3.51,25.8,6.75,38.5,9.75,49.95,11.86,98.26,20.53,144.31,25.8,33.8,3.85,65.66,5.78,95.55,5.78,133.7,0,226.24-38.22,264.87-110.92,47.18-88.91,6.35-215.87-114.88-357.41l.02.02Z"/>
  <path class="cls-7" d="m1280.97,1096.3c-9.81,78.59-24.44,153.1-43.61,221.32-3.57,12.87-7.37,25.57-11.28,37.99-9.07,28.86-19,56.42-29.77,82.5-60.85,147.71-142.89,232.37-225,232.37s-164.21-84.66-225.06-232.37c-11.8-28.64-22.62-59.08-32.43-91.01-3.85-12.48-7.54-25.17-11-38.11-17.4-63.74-30.9-132.74-40.26-205.38-2.21-16.78-4.14-33.74-5.84-50.86-6.46-63.9-9.75-130.13-9.75-197.66s3.07-129,9.07-190.75c1.64-17.01,3.51-33.8,5.56-50.47,9.01-71.95,22.06-140.51,38.84-203.9,3.41-12.93,6.98-25.69,10.72-38.16,10.49-35.16,22.23-68.5,35.1-99.8,60.85-147.65,142.89-232.32,225.06-232.32s164.16,84.66,225,232.32c11.8,28.69,22.62,59.08,32.43,91.07,12.98-3.41,25.8-6.52,38.56-9.41-10.32-33.96-21.77-66.29-34.3-96.73C1164.73,91.24,1071.79,0,971.32,0s-193.47,91.24-261.74,256.92c-13.67,33.11-26.03,68.5-37.03,105.75-3.75,12.53-7.32,25.23-10.72,38.16-19.62,74.45-34.25,155.54-43.37,240.77-1.81,16.84-3.41,33.85-4.76,50.98-4.25,52.96-6.41,107.34-6.41,162.52s2.33,114.09,6.98,169.14c1.42,17.3,3.07,34.42,4.99,51.32,9.53,86.13,24.67,167.96,45.02,242.8,3.46,12.93,7.14,25.69,11,38.16,10.26,33.97,21.77,66.29,34.3,96.73,68.27,165.69,161.21,256.92,261.74,256.92s193.41-91.24,261.68-256.92c11.46-27.78,22-57.16,31.59-87.89,3.97-12.48,7.71-25.17,11.34-38.05,22.06-79.33,38.33-166.59,48.2-258.73-14.12,9.35-28.52,18.6-43.15,27.73h-.02Z"/>
  <path class="cls-9" d="m962.13,1219c-16.73,7.2-33.4,14.12-49.95,20.75-34.82-16.22-69.68-33.57-104.39-52-50.24-26.71-98.84-54.83-145.22-84.15-2.21-16.78-4.14-33.74-5.84-50.86,53.58,34.98,110.4,68.5,169.66,99.97,45.19,23.98,90.55,46.16,135.75,66.29h0Z"/>
  <circle class="cls-2" cx="187.75" cy="461.04" r="80.97"/>
  <circle class="cls-2" cx="468.79" cy="236.3" r="31.2"/>
  <circle class="cls-2" cx="548.15" cy="1665.66" r="79.36"/>
  <circle class="cls-2" cx="1405.22" cy="109.18" r="39.69"/>
  <circle class="cls-5" cx="1954.54" cy="1054.8" r="53.39"/>
  <circle class="cls-5" cx="26.69" cy="946.36" r="26.69"/>
  <circle class="cls-6" cx="1193.03" cy="1492.6" r="80.97"/>
  <circle class="cls-13" cx="1700.26" cy="1330.67" r="80.97"/>
  <circle class="cls-5" cx="1605.23" cy="353.66" r="80.97"/>
  <circle class="cls-3" cx="211.02" cy="1272.42" r="80.97"/>
</svg>